# xmcd
#
# Track frame offsets: 
#        150
#        19934
#        46506
#        62610
#        77206
#        96182
#        114542
#        129469
#        148026
#        157898
#        177647
#
# Disc length: 2644 seconds
#
# Revision: 0
# Processed by: cddbd v1.5.2PL0 Copyright (c) Steve Scherf et al.
# Submitted via: ExactAudioCopy v0.95b4
#
DISCID=8d0a520b
DTITLE=I Draw Slow - Downside
DYEAR=2010
DGENRE=Country
TTITLE0=Little Switzerland
TTITLE1=Lighthouse Daughter
TTITLE2=Bowling Green
TTITLE3=Halfway
TTITLE4=Santiago
TTITLE5=Low High Low
TTITLE6=Susken Song
TTITLE7=Oh Sally
TTITLE8=Little Satchel
TTITLE9=That Boy's Not Fair
TTITLE10=Dead In The Morning
EXTD=
EXTT0=
EXTT1=
EXTT2=
EXTT3=
EXTT4=
EXTT5=
EXTT6=
EXTT7=
EXTT8=
EXTT9=
EXTT10=
PLAYORDER=
